<svg id="Layer_1" data-name="Layer 1" xmlns="http://www.w3.org/2000/svg" xmlns:xlink="http://www.w3.org/1999/xlink" viewBox="0 0 562.51 525.94">
  <defs>
    <linearGradient id="linear-gradient" x1="155.48" y1="190.49" x2="410.22" y2="190.49" gradientUnits="userSpaceOnUse">
      <stop offset="0.44" stop-color="#cf1f36"/>
      <stop offset="0.84" stop-color="#ffc5d7"/>
    </linearGradient>
    <linearGradient id="linear-gradient-2" x1="151.73" y1="334.73" x2="407.99" y2="334.73" gradientUnits="userSpaceOnUse">
      <stop offset="0.15" stop-color="#ffc5d7"/>
      <stop offset="0.66" stop-color="#cf1f36"/>
    </linearGradient>
    <linearGradient id="linear-gradient-3" x1="151.41" y1="262.97" x2="411.1" y2="262.97" gradientTransform="translate(275.9 -122.03) rotate(46.13)" gradientUnits="userSpaceOnUse">
      <stop offset="0.18" stop-color="#cf1f36"/>
      <stop offset="0.51" stop-color="#ffc5d7"/>
      <stop offset="0.83" stop-color="#cf1f36"/>
    </linearGradient>
  </defs>
  <path class="cls-1" d="M387.71,128.4l-203-.28c-.66,0-1.31,0-2,.1a22.42,22.42,0,0,0-17.88,3.47c-10.57,7.38-12.44,22.34-4.64,32.61L226.13,251a5.74,5.74,0,0,0,8,1.14A39.39,39.39,0,0,0,241.64,197l-18-23.66a.15.15,0,0,1,.12-.24l163.92.27a22.5,22.5,0,1,0,0-45Z" style="fill:url(#linear-gradient)"/>
  <path class="cls-2" d="M403.33,358.25,339.4,275a7,7,0,0,0-9.74-1.3,38.14,38.14,0,0,0-7,53.44l19.11,24.87a.06.06,0,0,1-.05.1H174.83c-12.23,0-22.68,9.51-23.08,21.74a22.49,22.49,0,0,0,22.49,23.27H381.6a22.39,22.39,0,0,0,14.71-5.5,22.34,22.34,0,0,0,7-33.41Z" style="fill:url(#linear-gradient-2)"/>
  <rect class="cls-3" x="103.86" y="240.47" width="354.78" height="45.01" rx="22.5" transform="translate(-103.24 283.47) rotate(-46.13)" style="fill:url(#linear-gradient-3)"/>
</svg>